<svg xmlns="http://www.w3.org/2000/svg" width="282.506" height="278.208" viewBox="0 0 282.506 278.208">
  <g id="image-sign-up" transform="translate(-77.192 -121.09)">
    <rect id="Rectangle_125" data-name="Rectangle 125" width="90.85" height="44.898" transform="translate(104.404 121.397)" fill="#fff" stroke="#0c5ae5" stroke-linecap="round" stroke-linejoin="round" stroke-width="0.616"/>
    <g id="Group_4" data-name="Group 4">
      <path id="Path_1" data-name="Path 1" d="M79.579,244.052c7.183-1.011,15.749-6.036,21.635,2.515,4.061,5.9,3.041,13.971,12.087,14.392,3.586.166,6.828-1,10.08,1.09,2.826,1.82,4.255,5.21,5.493,8.187,1.064,2.561,1.575,6.171,3.235,8.43,2.711,3.69,6.352,2.561,10.377,3,3.83.415,7.68,1.818,10.1,5.033,3.194,4.253,1.6,9.337,3.362,13.846,0,0,3.589,18.865-16.854,17.568-4.831-.307-9.592.229-13.973-2.786-3.313-2.279-4.873-6.067-5.447-9.877-.6-4,.373-7.689-3.425-10.244-2.327-1.565-5.955-1.926-8.557-2.883-3.027-1.113-6.473-2.4-8.409-5.149-2.226-3.162-1.192-6.449-1.507-10.025-.8-9.022-8.817-7.668-14.88-11.48-8.788-5.527-4.122-14.294-3.41-21.513Z" fill="#0c5ae5"/>
      <line id="Line_1" data-name="Line 1" x2="64.072" y2="61.468" transform="translate(92.04 256.105)" fill="none" stroke="#fff" stroke-linecap="round" stroke-linejoin="round" stroke-width="0.616"/>
      <line id="Line_2" data-name="Line 2" x2="2.012" y2="13.979" transform="translate(116.643 267.66)" fill="none" stroke="#fff" stroke-linecap="round" stroke-linejoin="round" stroke-width="0.616"/>
      <line id="Line_3" data-name="Line 3" x1="12.543" y2="1.943" transform="translate(128.99 303.587)" fill="none" stroke="#fff" stroke-linecap="round" stroke-linejoin="round" stroke-width="0.616"/>
      <line id="Line_4" data-name="Line 4" x1="10.347" y1="0.769" transform="translate(100.277 273.165)" fill="none" stroke="#fff" stroke-linecap="round" stroke-linejoin="round" stroke-width="0.616"/>
    </g>
    <g id="Group_5" data-name="Group 5">
      <path id="Path_2" data-name="Path 2" d="M155.667,286.192s7.323-61.671-50.4-103.4c-16.346,63.007,41.342,114.3,41.342,114.3Z" fill="#fff" stroke="#0c5ae5" stroke-linecap="round" stroke-linejoin="round" stroke-width="0.616"/>
      <line id="Line_5" data-name="Line 5" x1="3.606" y2="28.956" transform="translate(127.424 207.418)" fill="#fff" stroke="#0c5ae5" stroke-linecap="round" stroke-linejoin="round" stroke-width="0.616"/>
      <line id="Line_6" data-name="Line 6" x1="26.103" y1="14.637" transform="translate(107.279 236.148)" fill="#fff" stroke="#0c5ae5" stroke-linecap="round" stroke-linejoin="round" stroke-width="0.616"/>
      <line id="Line_7" data-name="Line 7" x2="26.509" y2="14.564" transform="translate(111.365 247.09)" fill="#fff" stroke="#0c5ae5" stroke-linecap="round" stroke-linejoin="round" stroke-width="0.616"/>
      <line id="Line_8" data-name="Line 8" x2="45.5" y2="110.064" transform="translate(105.272 182.787)" fill="#fff" stroke="#0c5ae5" stroke-linecap="round" stroke-linejoin="round" stroke-width="0.616"/>
    </g>
    <g id="Group_6" data-name="Group 6">
      <path id="Path_3" data-name="Path 3" d="M354.03,210.151l-2.88-18.23,4.46-3.621L344,173.961l-4.47,3.61-17.23-6.62-.89-5.67-18.24,2.89.9,5.67-14.35,11.61-5.36-2.06-6.61,17.23,5.36,2.06,2.88,18.23-4.46,3.62,11.61,14.34,4.47-3.61,17.23,6.62.89,5.669,18.24-2.889-.9-5.67,14.35-11.61,5.35,2.06,6.62-17.23Zm-21.67,1.56a14.772,14.772,0,1,1-8.5-19.08A14.768,14.768,0,0,1,332.36,211.711Z" fill="#fff" stroke="#0c5ae5" stroke-linecap="round" stroke-linejoin="round" stroke-width="0.616"/>
    </g>
    <g id="Group_7" data-name="Group 7">
      <path id="Rectangle_126" data-name="Rectangle 126" d="M6.142,0h192a6.142,6.142,0,0,1,6.142,6.142V118.785a0,0,0,0,1,0,0H0a0,0,0,0,1,0,0V6.142A6.142,6.142,0,0,1,6.142,0Z" transform="translate(117.363 204.435)" fill="#d4e6fc"/>
      <rect id="Rectangle_127" data-name="Rectangle 127" width="185.503" height="101.921" transform="translate(126.754 212.867)" fill="#fff"/>
      <path id="Rectangle_128" data-name="Rectangle 128" d="M0,0H223.53a0,0,0,0,1,0,0V3.656a5.778,5.778,0,0,1-5.778,5.778H5.778A5.778,5.778,0,0,1,0,3.656V0A0,0,0,0,1,0,0Z" transform="translate(107.741 323.221)" fill="#fff" stroke="#0c5ae5" stroke-linecap="round" stroke-linejoin="round" stroke-width="0.616"/>
      <path id="Rectangle_129" data-name="Rectangle 129" d="M0,0H31.777a0,0,0,0,1,0,0V.845a3.482,3.482,0,0,1-3.482,3.482H3.482A3.482,3.482,0,0,1,0,.845V0A0,0,0,0,1,0,0Z" transform="translate(203.618 323.221)" fill="#0c5ae5"/>
    </g>
    <rect id="Rectangle_130" data-name="Rectangle 130" width="104.77" height="70.116" rx="7.55" transform="translate(241.613 236.305)" fill="#fff" stroke="#0c5ae5" stroke-linecap="round" stroke-linejoin="round" stroke-width="0.616"/>
    <line id="Line_9" data-name="Line 9" x2="253.557" transform="translate(92.826 332.655)" fill="#d4e6fc" stroke="#0c5ae5" stroke-linecap="round" stroke-linejoin="round" stroke-width="0.616"/>
    <text id="sign_up" data-name="sign up" transform="translate(116.697 149.914)" fill="#0c5ae5" font-size="17.187" font-family="Ubuntu-Bold, Ubuntu" font-weight="700"><tspan x="0" y="0">SIGN UP</tspan></text>
    <rect id="Rectangle_131" data-name="Rectangle 131" width="78.912" height="12.131" transform="translate(254.542 247.347)" fill="#fff" stroke="#0c5ae5" stroke-linecap="round" stroke-linejoin="round" stroke-width="0.616"/>
    <rect id="Rectangle_132" data-name="Rectangle 132" width="78.912" height="12.131" transform="translate(254.542 264.576)" fill="#fff" stroke="#0c5ae5" stroke-linecap="round" stroke-linejoin="round" stroke-width="0.616"/>
    <rect id="Rectangle_133" data-name="Rectangle 133" width="47.505" height="12.131" transform="translate(270.246 285.572)" fill="#0c5ae5"/>
    <g id="Group_9" data-name="Group 9">
      <path id="Path_4" data-name="Path 4" d="M251.289,171.266a23.627,23.627,0,0,1-7.82-17.548V136.952h43.02v16.766a23.627,23.627,0,0,1-7.82,17.548l-13.69,12.31Z" fill="#0c5ae5"/>
      <path id="Path_5" data-name="Path 5" d="M247.785,141.269h34.388v12.449a19.283,19.283,0,0,1-6.39,14.339l-10.8,9.714-10.8-9.714a19.283,19.283,0,0,1-6.39-14.339Z" fill="#fff"/>
      <g id="Group_8" data-name="Group 8">
        <circle id="Ellipse_3" data-name="Ellipse 3" cx="5.833" cy="5.833" r="5.833" transform="translate(263.063 146.18)" fill="#0c5ae5"/>
        <path id="Path_6" data-name="Path 6" d="M268.9,152.013l-10.143,10.143,3.172,3.172" fill="none" stroke="#0c5ae5" stroke-miterlimit="10" stroke-width="3"/>
        <line id="Line_10" data-name="Line 10" x1="2.33" y1="2.33" transform="translate(261.606 159.303)" fill="none" stroke="#0c5ae5" stroke-miterlimit="10" stroke-width="3"/>
        <circle id="Ellipse_4" data-name="Ellipse 4" cx="3.101" cy="3.101" r="3.101" transform="translate(265.795 148.912)" fill="#fff"/>
      </g>
    </g>
    <line id="Line_11" data-name="Line 11" x2="187" transform="translate(77.5 398.5)" fill="#d4e6fc" stroke="#0c5ae5" stroke-linecap="round" stroke-linejoin="round" stroke-width="0.616"/>
    <g id="Group_19" data-name="Group 19" transform="translate(86.619 173.667)">
      <path id="Path_95" data-name="Path 95" d="M223.145,421.653H229.2l2.879-23.348h-8.934Z" transform="translate(-112.968 -201.645)" fill="#ffb8b8"/>
      <path id="Path_96" data-name="Path 96" d="M0,0H19.024V7.35H7.35A7.35,7.35,0,0,1,0,0Z" transform="translate(127.903 225.629) rotate(179.997)" fill="#2f2e41"/>
      <path id="Path_97" data-name="Path 97" d="M110,415.116l5.928,1.225,7.548-22.281-8.749-1.809Z" transform="translate(-55.69 -198.58)" fill="#ffb8b8"/>
      <path id="Path_98" data-name="Path 98" d="M0,0H19.024V7.35H7.35A7.35,7.35,0,0,1,0,0H0Z" transform="translate(70.535 225.628) rotate(-168.318)" fill="#2f2e41"/>
      <path id="Path_99" data-name="Path 99" d="M472.069,482.243a4.965,4.965,0,0,1,.712-7.58l-4.7-17.007,8.722,2.828,3.123,15.717a4.992,4.992,0,0,1-7.86,6.042Z" transform="translate(-401.336 -340.829)" fill="#ffb8b8"/>
      <path id="Path_100" data-name="Path 100" d="M498.006,553.883a2.219,2.219,0,0,1-2.194-1.868l-11.281-62.161a.741.741,0,0,0-1.412-.181L457.987,547.82a2.236,2.236,0,0,1-2.747,1.225l-8.828-2.966a2.222,2.222,0,0,1-1.349-2.946l12.151-29.763,10.143-44.908.072-.054c.2-.148,19.71-14.714,33.045-3.063,12.2,10.661,9.932,71.585,9.353,83.69a2.2,2.2,0,0,1-1.688,2.048l-9.592,2.737a2.259,2.259,0,0,1-.539.066Z" transform="translate(-389.598 -342.436)" fill="#2f2e41"/>
      <circle id="Ellipse_6" data-name="Ellipse 6" cx="12.127" cy="12.127" r="12.127" transform="translate(77.159 49.096)" fill="#ffb8b8"/>
      <path id="Path_101" data-name="Path 101" d="M557.4,471.243a4.965,4.965,0,0,1,.712-7.58l-4.7-17.007,8.722,2.828,3.123,15.717a4.992,4.992,0,0,1-7.86,6.042Z" transform="translate(-444.537 -335.26)" fill="#ffb8b8"/>
      <path id="Path_102" data-name="Path 102" d="M483.371,431.164a1.293,1.293,0,0,1-.491-.1c-5.121-2.082-1.038-42.716-.861-44.445l.019-.074q.19-.434.384-.85a14.639,14.639,0,0,1,14.848-8.557,15.062,15.062,0,0,1,13.4,11.123l9.489,34.768a2.22,2.22,0,0,1-2.626,2.753c-7.383-1.649-25.276-4.577-31.946,3.835C484.763,430.654,484.034,431.164,483.371,431.164Z" transform="translate(-407.526 -300.029)" fill="#0c5ae5"/>
      <path id="Path_103" data-name="Path 103" d="M541.9,429.341a2.232,2.232,0,0,1-.715-.119,2.2,2.2,0,0,1-1.3-1.161l-8.259-17.606-8.036-23.131a5.482,5.482,0,0,1,1.4-5.766h0a5.471,5.471,0,0,1,8.73,1.673l10.693,23.1,8.343,15.07a2.222,2.222,0,0,1-.919,3.047l-8.92,4.639a2.213,2.213,0,0,1-1.022.252Z" transform="translate(-429.285 -301.544)" fill="#0c5ae5"/>
      <path id="Path_104" data-name="Path 104" d="M475.363,436.676a2.225,2.225,0,0,1-.239-.013l-10-1.061a2.222,2.222,0,0,1-1.964-2.534L466,413.83l6.078-23.721a5.481,5.481,0,0,1,4.355-4.031h0a5.472,5.472,0,0,1,6.354,6.216l-3.847,25.164-1.369,17.171a2.223,2.223,0,0,1-2.21,2.046Z" transform="translate(-398.832 -304.551)" fill="#0c5ae5"/>
      <path id="Path_105" data-name="Path 105" d="M493.959,319.11l10.078-.734a10.3,10.3,0,0,0-6.285-11.053c-4.3-1.632-9.627.181-11.277,2.78a14.343,14.343,0,1,0,4.424,27.466C486.739,331.732,488.874,322.453,493.959,319.11Z" transform="translate(-402.758 -264.408)" fill="#2f2e41"/>
      <path id="Path_106" data-name="Path 106" d="M444.189,314.672c-3.127-2.857-6.95-5.141-11.155-5.646s-8.8,1.036-11.222,4.512-2,8.878,1.406,11.4a8.8,8.8,0,0,1-3.908,15.781c-6.253.952-10.962,7.4-10.494,13.7s5.637,11.808,11.8,13.223,12.911-1.019,17.214-5.655a23.289,23.289,0,0,0,5.74-17.525,31.7,31.7,0,0,0-7.239-17.231c-1.081-1.335-.269-3.452,1.12-4.463s3.157-1.293,4.783-1.848,3.3-1.6,3.678-3.277S444.387,314.011,444.189,314.672Z" transform="translate(-371.315 -265.537)" fill="#2f2e41"/>
    </g>
  </g>
</svg>
